<svg id="Layer_1" data-name="Layer 1" xmlns="http://www.w3.org/2000/svg" viewBox="0 0 47.52 28.23"><defs><style>.cls-1{fill:#00767f;}.cls-2{fill:#364e4e;}.cls-3{fill:#2d3333;}</style></defs><path class="cls-1" d="M25.61,12.21V2.36a1.28,1.28,0,0,1,1.28-1.28h.53A1.28,1.28,0,0,1,28.7,2.36V5.61a.25.25,0,0,0,.44.15l3.12-3.83A2.29,2.29,0,0,1,34,1.08h0a1.26,1.26,0,0,1,1,2.06l-2.68,3.3a.24.24,0,0,0,0,.29l3,4.64a1.48,1.48,0,0,1-1.25,2.27h0a1.64,1.64,0,0,1-1.37-.76L30.25,9a.25.25,0,0,0-.4,0l-1.09,1.3a.25.25,0,0,0-.06.16V12A1.67,1.67,0,0,1,27,13.64h0A1.43,1.43,0,0,1,25.61,12.21Z"/><path class="cls-1" d="M37.52,1a1.53,1.53,0,0,1,1.53,1.54V8.43a2.19,2.19,0,1,0,4.37,0V2.55A1.53,1.53,0,0,1,45,1h0a1.54,1.54,0,0,1,1.54,1.54V8.68a5,5,0,0,1-5.25,5,5,5,0,0,1-5.26-5V2.55A1.54,1.54,0,0,1,37.52,1Z"/><path class="cls-1" d="M43.19,23.6c0-.81-1-.94-2.9-1.69s-3.41-1.59-3.41-3.56c0-2.23,2.07-3.77,4.79-3.77a5.6,5.6,0,0,1,3.46,1.09,1.2,1.2,0,0,1-.05,2h0a1.89,1.89,0,0,1-2.1,0,2.39,2.39,0,0,0-1.35-.41c-.74,0-1.45.34-1.45,1s1.09.92,2.37,1.41c2.21.86,3.94,1.64,3.94,3.81,0,2-1.87,3.71-4.94,3.71a6.35,6.35,0,0,1-4.23-1.51A1.07,1.07,0,0,1,37.39,24l.08-.06a2,2,0,0,1,2.27,0,3.17,3.17,0,0,0,1.81.58C42.48,24.52,43.19,24.2,43.19,23.6Z"/><path class="cls-1" d="M30.32,14.61H27.56a2.06,2.06,0,0,0-2.06,2.06v8.91a1.61,1.61,0,0,0,1.6,1.61h3.22a6.29,6.29,0,1,0,0-12.58Zm1,2.95L33.84,20s-.61.62-.6.62a2.79,2.79,0,0,0-1.52-.92,3.76,3.76,0,0,0-1-1.53ZM31.5,21a2.62,2.62,0,0,0,.25-.86c.5,0,1.25.86,1.25.86-.16.35-1.23.88-1.25.87A1.56,1.56,0,0,0,31.5,21Zm-1.86.3a6.53,6.53,0,0,0,.52.53c-.11.11-.65.13-.65.13A1.71,1.71,0,0,1,29.64,21.25ZM29.5,20a1.54,1.54,0,0,1,.66.13,6.69,6.69,0,0,0-.54.52C29.51,20.56,29.5,20,29.5,20Zm.32.93c0-.11.61-.63.61-.63s.62.48.62.64-.52.63-.62.63A1.87,1.87,0,0,1,29.82,21Zm.94-.83c.11-.11.65-.13.65-.13a1.45,1.45,0,0,1-.13.67A6.69,6.69,0,0,0,30.76,20.12Zm.55,1.12a1.78,1.78,0,0,1,.11.65,1.55,1.55,0,0,1-.66-.14S31.29,21.24,31.31,21.24Zm-.82-2.81c.34.16.87,1.23.86,1.25a1.57,1.57,0,0,0-.86.25,2.74,2.74,0,0,0-.87-.25C29.66,19.18,30.49,18.43,30.49,18.43Zm-.93-.84.6.59a3.77,3.77,0,0,0-.95,1.57,2.94,2.94,0,0,0-1.48,1l-.63-.59Zm-.36,4.23S28.11,21.3,28,21c0,0,.76-.82,1.25-.86,0,0,.11.74.26.86A1.55,1.55,0,0,0,29.2,21.82Zm.47,2.46-2.55-2.45s.61-.62.6-.62a2.79,2.79,0,0,0,1.52.92,3.76,3.76,0,0,0,1,1.53Zm.82-.8s-.83-.76-.87-1.25a2.55,2.55,0,0,0,.87-.26,1.48,1.48,0,0,0,.86.26S30.83,23.32,30.49,23.48Zm.87.81-.58-.6a3.9,3.9,0,0,0,1-1.55,2.94,2.94,0,0,0,1.5-.94s.61.61.61.61Z"/><path class="cls-2" d="M20.32,15.09l.09.1a1.23,1.23,0,0,1,.32.63A1,1,0,0,1,20,17a1.22,1.22,0,0,1-.73-.07l-.16-.08a.13.13,0,0,0,0,.08.81.81,0,0,1-1.05.55,1.66,1.66,0,0,1-.55-.31l-.11-.1-.12.16a1.56,1.56,0,0,1-.88.59,1.47,1.47,0,0,1-1-.1,1.75,1.75,0,0,1-1-1.1l0-.08-.08.07a.67.67,0,0,1-.77.13c-.14-.06-.15-.06-.26.07a3.81,3.81,0,0,0-.82,2.24,1.09,1.09,0,0,0,0,.18A2.39,2.39,0,0,0,11,21.49v.12a5.57,5.57,0,0,1-1.89-.37A3,3,0,0,0,9.6,20a2.1,2.1,0,0,0,0-.75c-.07-.36-.14-.73-.22-1.09a1.93,1.93,0,0,0-.29-.73A1.35,1.35,0,0,0,8.53,17l-.08.09a1.36,1.36,0,0,1-.8.5,1.08,1.08,0,0,1-1.05-.36.46.46,0,0,0-.07-.07h0l-.09.06a2.77,2.77,0,0,1-.6.35,1.94,1.94,0,0,1-1.3.06,2,2,0,0,1-.61-.28A1.37,1.37,0,0,1,3.58,17l-.09,0a2.81,2.81,0,0,1-.91.12A1.15,1.15,0,0,1,2.13,17a1.63,1.63,0,0,1-1-1.23,1,1,0,0,1,0-.42,1.48,1.48,0,0,1,.45-.83l0,0-.12-.11a1.41,1.41,0,0,1-.45-.62,1,1,0,0,1,0-.76,1.35,1.35,0,0,1,.69-.72c.14-.06.29-.1.43-.15l.09,0L2.26,12a.86.86,0,0,1,0-1.11A1.66,1.66,0,0,1,3,10.39l.16-.07L3,10.23a.51.51,0,0,1-.1-.65,1.07,1.07,0,0,1,.25-.31l.09-.08-.07,0A1.55,1.55,0,0,1,2.64,9,1.12,1.12,0,0,1,2,8a1.06,1.06,0,0,1,.76-1,1.26,1.26,0,0,1,.79,0h0a.22.22,0,0,0,0-.08,1.29,1.29,0,0,1,.92-1.42,1.49,1.49,0,0,1,1.19.07,1,1,0,0,1,.55.64.69.69,0,0,0,0,.1A1,1,0,0,1,6.79,6l-.1-.1a1,1,0,0,1-.29-.59.92.92,0,0,1,.68-1,.86.86,0,0,1,.39,0l.13,0,0-.12a1.42,1.42,0,0,1,0-.29.6.6,0,0,1,.22-.46,1.55,1.55,0,0,1,.63-.34,1.93,1.93,0,0,1,1.09-.07,1.13,1.13,0,0,1,.81.7l0,.07s0,0,0,0l.38.1,0-.1a.85.85,0,0,1,.79-.62,1.11,1.11,0,0,1,.69.17,1.61,1.61,0,0,1,.68.71s0,.05,0,.08l0,0a2.06,2.06,0,0,1,1.13-.46A1.52,1.52,0,0,1,15.75,5a1.63,1.63,0,0,1,0,.54,1.11,1.11,0,0,1-.18.51l-.05.07v0l.2,0a1.38,1.38,0,0,1,1.06.26,1,1,0,0,1,.46,1,1.52,1.52,0,0,1,0,.21h.05a1,1,0,0,1,1.17.55,1.44,1.44,0,0,1,.08,1.25,1.48,1.48,0,0,1-.16.27l-.07.09.08,0a1,1,0,0,1,.95,1.1,1.12,1.12,0,0,1-.21.5l-.08.11a1,1,0,0,1,.35,1h.14a1.23,1.23,0,0,1,1,.29A1.27,1.27,0,0,1,21,13.94a1.55,1.55,0,0,1-.34.85A4,4,0,0,1,20.32,15.09Z"/><path class="cls-3" d="M16.08,22.13a5.09,5.09,0,0,1-10.18,0c0-.94.26-1.25.7-1.25a12.22,12.22,0,0,1,2.5.89,2.74,2.74,0,0,1-.39.45c-.29.28-.59.54-.88.81a.16.16,0,0,0,0,.19.16.16,0,0,0,.19.07l.11,0a4.19,4.19,0,0,1,.7-.26,6.16,6.16,0,0,1,1.11-.26,1.1,1.1,0,0,1,.73.16,1.79,1.79,0,0,1,.47.44c.16.18.3.38.45.57l.07.08a.17.17,0,0,0,.18,0c.06,0,.05-.09.05-.13l0-.12a2.94,2.94,0,0,1-.16-.65.3.3,0,0,1,.26-.37.75.75,0,0,1,.33,0l1,.27.22,0a.1.1,0,0,0,.11-.09.16.16,0,0,0,0-.15,1.85,1.85,0,0,1-.14-.14c-.18-.23-.37-.45-.54-.69a2.56,2.56,0,0,1-.46-1.22,7.18,7.18,0,0,1,0-1,2.53,2.53,0,0,1,3.75,2.11A2.17,2.17,0,0,1,16.08,22.13Z"/></svg>